<svg width="32" height="32" viewBox="0 0 26 26" fill="none" xmlns="http://www.w3.org/2000/svg">
<path d="M12.2018 0.273902C12.43 0.0963811 12.7109 0 13 0C13.2891 0 13.57 0.0963811 13.7982 0.273902L24.4946 8.5939C24.9637 8.95881 25.3432 9.42609 25.6041 9.96007C25.865 10.494 26.0004 11.0806 26 11.6749V23.4009C26 24.0905 25.7261 24.7518 25.2385 25.2394C24.7509 25.727 24.0896 26.0009 23.4 26.0009H18.2C17.5104 26.0009 16.8491 25.727 16.3615 25.2394C15.8739 24.7518 15.6 24.0905 15.6 23.4009V15.6009H10.4V23.4009C10.4 24.0905 10.1261 24.7518 9.63848 25.2394C9.15088 25.727 8.48956 26.0009 7.8 26.0009H2.6C1.91044 26.0009 1.24912 25.727 0.761522 25.2394C0.273928 24.7518 0 24.0905 0 23.4009V11.6749C0 10.4685 0.5564 9.3349 1.508 8.5939L12.2018 0.273902ZM13 2.9467L3.1018 10.6453C2.94509 10.7672 2.81838 10.9234 2.7314 11.1019C2.64441 11.2803 2.59947 11.4764 2.6 11.6749V23.4009H7.8V15.6009C7.8 14.9113 8.07393 14.25 8.56152 13.7624C9.04912 13.2748 9.71044 13.0009 10.4 13.0009H15.6C16.2896 13.0009 16.9509 13.2748 17.4385 13.7624C17.9261 14.25 18.2 14.9113 18.2 15.6009V23.4009H23.4V11.6749C23.4005 11.4764 23.3556 11.2803 23.2686 11.1019C23.1816 10.9234 23.0549 10.7672 22.8982 10.6453L13 2.9493V2.9467Z" fill="black"/>
</svg>
