<svg width="32" height="32" viewBox="0 0 62 62" fill="none" xmlns="http://www.w3.org/2000/svg">
<path d="M30.5 61.7738C25.8886 61.7867 21.3355 60.7434 17.1899 58.7237C15.6727 57.9857 14.219 57.1237 12.8437 56.1465L12.4259 55.8415C8.64336 53.0495 5.55086 49.428 3.38577 45.255C1.14629 40.9358 -0.0152276 36.139 0.000150738 31.2738C0.000150738 14.4292 13.6555 0.773926 30.5 0.773926C47.3445 0.773926 60.9998 14.4292 60.9998 31.2738C61.0151 36.1367 59.8546 40.9312 57.6173 45.2489C55.4552 49.4195 52.367 53.0398 48.5894 55.8323C47.1643 56.8754 45.652 57.7938 44.0693 58.5773L43.8253 58.6993C39.6771 60.7297 35.1184 61.7815 30.5 61.7738ZM30.5 46.5237C25.9296 46.5148 21.7395 49.0675 19.6513 53.1331C26.4874 56.5191 34.5126 56.5191 41.3487 53.1331V53.1178C39.258 49.0567 35.0677 46.5098 30.5 46.5237ZM30.5 40.4238C37.1066 40.4324 43.1983 43.9926 46.4483 49.7445L46.494 49.7049L46.5367 49.6683L46.4849 49.714L46.4544 49.7384C54.1678 43.0745 56.9258 32.3179 53.3707 22.7647C49.8155 13.2114 40.6963 6.87486 30.5031 6.87486C20.3098 6.87486 11.1906 13.2114 7.63545 22.7647C4.08028 32.3179 6.83834 43.0745 14.5517 49.7384C17.8038 43.9893 23.8949 40.4318 30.5 40.4238ZM30.5 37.3738C23.7622 37.3738 18.3001 31.9117 18.3001 25.1738C18.3001 18.436 23.7622 12.9739 30.5 12.9739C37.2378 12.9739 42.6999 18.436 42.6999 25.1738C42.6999 28.4095 41.4145 31.5126 39.1266 33.8005C36.8387 36.0884 33.7356 37.3738 30.5 37.3738ZM30.5 19.0739C27.1311 19.0739 24.4001 21.8049 24.4001 25.1738C24.4001 28.5428 27.1311 31.2738 30.5 31.2738C33.8689 31.2738 36.5999 28.5428 36.5999 25.1738C36.5999 21.8049 33.8689 19.0739 30.5 19.0739Z" fill="#000000"/>
</svg>
