<svg width="32" height="32" viewBox="0 0 58 58" fill="none" xmlns="http://www.w3.org/2000/svg">
<path d="M51.2098 58L31.7979 38.2532C23.0177 44.1466 11.2786 42.3235 4.62598 34.0334C-2.02659 25.7434 -1.43429 13.6758 5.99695 6.10138C13.44 -1.4626 25.3017 -2.06786 33.4512 4.70048C41.6007 11.4688 43.3935 23.4144 37.6007 32.349L57.0044 52.1041L51.2098 58ZM20.4937 8.33872C14.6268 8.33495 9.57424 12.5484 8.42592 18.4024C7.27761 24.2563 10.3534 30.1204 15.7722 32.4085C21.191 34.6965 27.4438 32.7713 30.7065 27.8101C33.9693 22.8489 33.3334 16.2336 29.1877 12.0097C26.888 9.65358 23.7573 8.33169 20.4937 8.33872Z" fill="#000000"/>
</svg>
