<svg width="620" height="75" viewBox="0 0 620 75" fill="none" xmlns="http://www.w3.org/2000/svg">
<g clip-path="url(#clip0)">
<path d="M97.0796 74.3626H81.4042V0.277832H97.0796V74.3626Z" fill="white"/>
<path d="M179.773 0.277832V74.3626H171.732C170.521 74.3626 169.494 74.1684 168.665 73.7801C167.836 73.3917 167.02 72.7186 166.23 71.7606L128.693 24.7829C128.799 25.9738 128.878 27.1518 128.93 28.304C128.983 29.4561 129.009 30.5305 129.009 31.5273V74.3626H115.242V0.277832H123.442C124.1 0.277832 124.666 0.303722 125.127 0.355503C125.587 0.407283 126.022 0.523789 126.403 0.717965C126.785 0.912142 127.153 1.1581 127.496 1.45584C127.838 1.75357 128.22 2.16782 128.641 2.68562L166.427 49.8705C166.296 48.576 166.191 47.3203 166.112 46.1164C166.046 44.9125 166.006 43.7604 166.006 42.673V0.277832H179.773Z" fill="white"/>
<path d="M213.625 12.2779V31.3202H238.75V42.906H213.625V62.3625H245.91V74.3626H197.936V0.277832H245.91V12.2779H213.625Z" fill="white"/>
<path d="M330.196 10.5435V73.6767H318.47V34.9061C318.47 34.0906 318.496 33.2233 318.535 32.2912C318.575 31.3592 318.667 30.4271 318.772 29.4692L300.438 63.7089C299.438 65.5989 297.885 66.531 295.792 66.531H293.936C292.91 66.531 291.989 66.298 291.199 65.819C290.409 65.34 289.764 64.641 289.304 63.7089L270.864 29.3397C270.956 30.3494 271.022 31.3333 271.088 32.2783C271.141 33.2233 271.18 34.1035 271.18 34.9061V73.6767H259.453V10.5435H269.535C270.101 10.5435 270.601 10.5564 271.035 10.5823C271.483 10.6082 271.865 10.6859 272.207 10.8153C272.549 10.9448 272.852 11.1519 273.141 11.4237C273.418 11.6956 273.694 12.0839 273.957 12.5758L291.91 46.246C292.475 47.2557 292.989 48.3043 293.476 49.3787C293.963 50.4532 294.423 51.5535 294.871 52.6797C295.318 51.5147 295.779 50.3884 296.266 49.2881C296.753 48.1878 297.279 47.1263 297.832 46.1166L315.653 12.5758C315.916 12.0839 316.193 11.6956 316.495 11.4237C316.785 11.1519 317.101 10.9448 317.443 10.8153C317.785 10.6859 318.167 10.6082 318.588 10.5823C319.009 10.5564 319.522 10.5435 320.115 10.5435H330.196Z" fill="white"/>
<path d="M401.808 73.6764H391.503C390.358 73.6764 389.41 73.4046 388.699 72.8738C387.975 72.3431 387.436 71.644 387.081 70.8026L382.75 58.7507H357.191L352.861 70.8026C352.571 71.5275 352.045 72.1877 351.308 72.7832C350.57 73.3787 349.636 73.6764 348.517 73.6764H338.12L363.192 10.5562H376.775L401.808 73.6764ZM379.526 49.7021L372.576 30.388C372.168 29.3783 371.734 28.1874 371.274 26.8152C370.813 25.456 370.379 23.9673 369.971 22.375C369.563 23.9932 369.128 25.5077 368.668 26.8799C368.207 28.2521 367.773 29.456 367.365 30.4657L360.468 49.6892H379.526V49.7021Z" fill="white"/>
<path d="M444.544 22.6472C444.136 23.3203 443.714 23.7993 443.28 24.11C442.846 24.4207 442.293 24.5631 441.622 24.5631C440.977 24.5631 440.279 24.343 439.516 23.8899C438.766 23.4368 437.884 22.9579 436.884 22.4271C435.883 21.9093 434.725 21.4174 433.435 20.9643C432.145 20.5113 430.619 20.2912 428.881 20.2912C425.815 20.2912 423.511 20.9643 421.985 22.3106C420.458 23.6569 419.681 25.4174 419.681 27.5922C419.681 28.9903 420.103 30.1424 420.945 31.0486C421.787 31.9677 422.893 32.7573 424.262 33.4175C425.631 34.0907 427.184 34.6732 428.934 35.2039C430.671 35.7217 432.461 36.3043 434.291 36.9256C436.12 37.547 437.897 38.2849 439.648 39.1263C441.385 39.9677 442.938 41.0292 444.307 42.2978C445.675 43.5794 446.781 45.1328 447.623 46.971C448.466 48.8092 448.887 51.0487 448.887 53.6895C448.887 56.5633 448.374 59.2559 447.36 61.7543C446.347 64.2657 444.873 66.4534 442.964 68.3175C441.043 70.1816 438.687 71.6573 435.87 72.7318C433.054 73.8062 429.855 74.3369 426.289 74.3369C424.249 74.3369 422.222 74.1298 420.208 73.7285C418.194 73.3272 416.246 72.7576 414.377 72.0327C412.508 71.3078 410.745 70.4405 409.086 69.4178C407.441 68.4081 405.994 67.2689 404.756 66.0262L408.652 59.8514C408.981 59.3854 409.402 59.01 409.929 58.6993C410.455 58.3886 411.021 58.2462 411.613 58.2462C412.403 58.2462 413.246 58.531 414.127 59.1135C415.009 59.696 416.036 60.3304 417.181 61.0294C418.326 61.7284 419.668 62.3627 421.182 62.9453C422.696 63.5278 424.525 63.8126 426.644 63.8126C429.737 63.8126 432.132 63.1135 433.83 61.7284C435.528 60.3304 436.37 58.2591 436.37 55.5018C436.37 53.9096 435.949 52.6151 435.107 51.6312C434.264 50.6474 433.172 49.8189 431.816 49.1458C430.461 48.4726 428.908 47.9031 427.17 47.4241C425.433 46.9451 423.643 46.4144 421.814 45.8318C419.984 45.2493 418.207 44.5503 416.457 43.7477C414.72 42.9322 413.167 41.8577 411.811 40.5244C410.455 39.191 409.363 37.534 408.521 35.5664C407.678 33.5987 407.257 31.1392 407.257 28.2136C407.257 25.8705 407.731 23.5922 408.678 21.3786C409.626 19.1779 411.008 17.2232 412.838 15.5015C414.667 13.7928 416.918 12.4076 419.589 11.372C422.261 10.3235 425.315 9.80566 428.763 9.80566C432.619 9.80566 436.199 10.3882 439.49 11.5662C442.78 12.7442 445.557 14.3753 447.834 16.4594L444.544 22.6472Z" fill="white"/>
<path d="M505.982 21.0808H487.226V73.6767H473.907V21.0808H455.152V10.5435H505.968V21.0808H505.982Z" fill="white"/>
<path d="M529.37 20.7701V36.9903H550.784V46.8674H529.37V63.4371H556.878V73.6637H516.011V10.5435H556.878V20.7701H529.37Z" fill="white"/>
<path d="M620 73.6767H608.01C605.772 73.6767 604.14 72.8352 603.14 71.1524L590.939 51.7995C590.439 51.0486 589.886 50.492 589.281 50.1425C588.675 49.793 587.781 49.6247 586.609 49.6247H582.095V73.6767H568.828V10.5435H588.991C593.466 10.5435 597.309 10.9965 600.495 11.9156C603.68 12.8347 606.286 14.1034 608.326 15.7215C610.366 17.3526 611.853 19.2814 612.787 21.5338C613.735 23.7863 614.196 26.2588 614.196 28.9514C614.196 31.0355 613.893 33.0161 613.288 34.8932C612.682 36.7573 611.8 38.466 610.655 40.0065C609.51 41.5469 608.089 42.9062 606.404 44.0971C604.719 45.2881 602.811 46.246 600.652 46.9709C601.508 47.437 602.298 47.9936 603.048 48.6409C603.785 49.2881 604.443 50.0648 605.035 50.971L620 73.6767ZM588.912 40.4337C591.058 40.4337 592.927 40.1618 594.48 39.6311C596.046 39.1003 597.323 38.3495 598.323 37.4175C599.323 36.4725 600.06 35.3721 600.534 34.0906C601.008 32.809 601.245 31.4239 601.245 29.9093C601.245 26.919 600.231 24.6018 598.218 22.9449C596.204 21.2879 593.124 20.4594 588.991 20.4594H582.095V40.4337H588.912Z" fill="white"/>
<path d="M64.7679 22.4398C62.9121 17.909 60.3061 14.0126 56.9236 10.7245C53.5542 7.43647 49.4873 4.87334 44.7492 3.03514C40.011 1.19693 34.7464 0.277832 28.9685 0.277832H0V74.3626H28.9685C34.7464 74.3626 40.011 73.4435 44.7492 71.6053C49.4873 69.7671 53.5542 67.2169 56.9236 63.9418C60.2929 60.6796 62.9121 56.7702 64.7679 52.2265C66.6236 47.6828 67.545 42.6989 67.545 37.2878C67.545 31.9156 66.6105 26.9706 64.7679 22.4398ZM30.5874 65.0292C26.8627 65.0292 9.89747 40.4723 10.6608 28.3946C12.1744 4.3167 46.6576 5.97367 51.0272 23.9544C55.3969 41.9351 33.7725 65.0292 30.5874 65.0292Z" fill="white"/>
<path d="M16.2939 22.6211C15.3331 23.4366 14.4908 26.0515 17.2547 31.0483C19.9792 35.9545 23.6775 42.3753 25.836 43.0096C25.836 43.0096 34.8517 60.7961 36.2731 61.4563C37.6946 62.1165 40.827 61.2881 39.9452 59.0227C39.037 56.6926 28.0998 42.194 28.0998 42.194C28.0998 42.194 28.6658 41.2102 27.0732 38.7895C24.5725 34.9836 19.3869 25.003 17.926 23.0612C17.1231 22.0256 16.5177 22.4398 16.2939 22.6211Z" fill="white"/>
<path d="M36.1548 35.9805C35.5757 33.9093 34.9702 31.7863 36.1285 30.1164C37.2867 28.4465 41.9458 21.8315 41.9458 21.8315L43.0777 22.4917L38.0632 30.7248L39.0766 31.3721L44.4334 23.3461L45.3678 23.851L40.6429 32.2264L41.8274 32.9125L46.7498 24.6665L47.6974 25.2232C47.6974 25.2232 44.2359 32.8996 43.1041 34.2718C41.9722 35.644 40.7613 36.3689 37.7736 36.9773C37.7736 36.9773 31.3903 49.8059 29.8504 52.5632C27.9946 55.8901 26.0994 61.9743 24.5463 62.2591C22.9932 62.5438 19.9793 62.8804 19.9135 59.3982C21.6508 55.8253 28.3763 47.5923 30.1005 44.356C32.0615 40.6408 36.1548 35.9805 36.1548 35.9805Z" fill="white"/>
</g>
<defs>
<clipPath id="clip0">
<rect width="620" height="74.0848" fill="white" transform="translate(0 0.277832)"/>
</clipPath>
</defs>
</svg>
