<svg width="620" height="75" viewBox="0 0 620 75" fill="none" xmlns="http://www.w3.org/2000/svg">
<path d="M97.0796 75H81.4042V0H97.0796V75Z" fill="black"/>
<path d="M179.773 0V75H171.732C170.521 75 169.494 74.8034 168.665 74.4103C167.836 74.0171 167.02 73.3357 166.23 72.3659L128.693 24.8078C128.799 26.0135 128.878 27.206 128.93 28.3724C128.983 29.5387 129.009 30.6264 129.009 31.6355V75H115.242V0H123.442C124.1 0 124.666 0.02621 125.127 0.0786301C125.587 0.13105 126.022 0.248995 126.403 0.44557C126.785 0.642146 127.153 0.891141 127.496 1.19256C127.838 1.49397 128.22 1.91333 128.641 2.43753L166.427 50.2053C166.296 48.8948 166.191 47.6236 166.112 46.4049C166.046 45.1861 166.006 44.0197 166.006 42.9189V0H179.773Z" fill="black"/>
<path d="M213.625 12.1483V31.4258H238.75V43.1548H213.625V62.8517H245.91V75H197.936V0H245.91V12.1483H213.625Z" fill="black"/>
<path d="M330.196 10.3926V74.3057H318.47V35.0562C318.47 34.2306 318.496 33.3526 318.535 32.409C318.575 31.4654 318.667 30.5219 318.772 29.5521L300.438 64.2149C299.438 66.1282 297.885 67.0718 295.792 67.0718H293.936C292.91 67.0718 291.989 66.8359 291.199 66.351C290.409 65.8661 289.764 65.1584 289.304 64.2149L270.864 29.4211C270.956 30.4432 271.022 31.4392 271.088 32.3959C271.141 33.3526 271.18 34.2437 271.18 35.0562V74.3057H259.453V10.3926H269.535C270.101 10.3926 270.601 10.4057 271.035 10.4319C271.483 10.4581 271.865 10.5367 272.207 10.6678C272.549 10.7988 272.852 11.0085 273.141 11.2837C273.418 11.5589 273.694 11.9521 273.957 12.4501L291.91 46.5362C292.475 47.5584 292.989 48.6199 293.476 49.7076C293.963 50.7953 294.423 51.9093 294.871 53.0494C295.318 51.8699 295.779 50.7298 296.266 49.6159C296.753 48.502 297.279 47.4273 297.832 46.4052L315.653 12.4501C315.916 11.9521 316.193 11.5589 316.495 11.2837C316.785 11.0085 317.101 10.7988 317.443 10.6678C317.785 10.5367 318.167 10.4581 318.588 10.4319C319.009 10.4057 319.522 10.3926 320.115 10.3926H330.196Z" fill="black"/>
<path d="M401.808 74.3058H391.503C390.358 74.3058 389.41 74.0306 388.699 73.4933C387.975 72.956 387.436 72.2483 387.081 71.3965L382.75 59.1957H357.191L352.861 71.3965C352.571 72.1304 352.045 72.7987 351.308 73.4016C350.57 74.0044 349.636 74.3058 348.517 74.3058H338.12L363.192 10.4058H376.775L401.808 74.3058ZM379.526 50.0353L372.576 30.4826C372.168 29.4605 371.734 28.2548 371.274 26.8657C370.813 25.4896 370.379 23.9826 369.971 22.3706C369.563 24.0088 369.128 25.5421 368.668 26.9312C368.207 28.3203 367.773 29.5391 367.365 30.5613L360.468 50.0222H379.526V50.0353Z" fill="black"/>
<path d="M444.544 22.6457C444.136 23.3271 443.714 23.812 443.28 24.1265C442.846 24.4411 442.293 24.5852 441.622 24.5852C440.977 24.5852 440.279 24.3624 439.516 23.9038C438.766 23.4451 437.884 22.9602 436.884 22.4229C435.883 21.8987 434.725 21.4007 433.435 20.942C432.145 20.4834 430.619 20.2606 428.881 20.2606C425.815 20.2606 423.511 20.942 421.985 22.305C420.458 23.6679 419.681 25.4502 419.681 27.6518C419.681 29.0671 420.103 30.2335 420.945 31.1508C421.787 32.0813 422.893 32.8807 424.262 33.5491C425.631 34.2305 427.184 34.8202 428.934 35.3575C430.671 35.8817 432.461 36.4715 434.291 37.1005C436.12 37.7295 437.897 38.4765 439.648 39.3284C441.385 40.1802 442.938 41.2548 444.307 42.5391C445.675 43.8365 446.781 45.4091 447.623 47.27C448.466 49.1309 448.887 51.3981 448.887 54.0715C448.887 56.9808 448.374 59.7067 447.36 62.2359C446.347 64.7783 444.873 66.993 442.964 68.8802C441.043 70.7673 438.687 72.2613 435.87 73.349C433.054 74.4367 429.855 74.974 426.289 74.974C424.249 74.974 422.222 74.7643 420.208 74.3581C418.194 73.9518 416.246 73.3752 414.377 72.6413C412.508 71.9074 410.745 71.0294 409.086 69.9941C407.441 68.9719 405.994 67.8187 404.756 66.5606L408.652 60.3095C408.981 59.8377 409.402 59.4577 409.929 59.1431C410.455 58.8286 411.021 58.6845 411.613 58.6845C412.403 58.6845 413.246 58.9728 414.127 59.5625C415.009 60.1522 416.036 60.7944 417.181 61.502C418.326 62.2097 419.668 62.8519 421.182 63.4416C422.696 64.0313 424.525 64.3196 426.644 64.3196C429.737 64.3196 432.132 63.612 433.83 62.2097C435.528 60.7944 436.37 58.6976 436.37 55.9062C436.37 54.2943 435.949 52.9838 435.107 51.9878C434.264 50.9918 433.172 50.1531 431.816 49.4716C430.461 48.7902 428.908 48.2136 427.17 47.7287C425.433 47.2438 423.643 46.7065 421.814 46.1168C419.984 45.527 418.207 44.8194 416.457 44.0069C414.72 43.1812 413.167 42.0935 411.811 40.7437C410.455 39.3939 409.363 37.7164 408.521 35.7245C407.678 33.7325 407.257 31.2426 407.257 28.2808C407.257 25.9088 407.731 23.6023 408.678 21.3614C409.626 19.1335 411.008 17.1547 412.838 15.4117C414.667 13.6819 416.918 12.2796 419.589 11.2312C422.261 10.1697 425.315 9.64551 428.763 9.64551C432.619 9.64551 436.199 10.2352 439.49 11.4278C442.78 12.6203 445.557 14.2716 447.834 16.3815L444.544 22.6457Z" fill="black"/>
<path d="M505.982 21.0601H487.226V74.3057H473.907V21.0601H455.152V10.3926H505.968V21.0601H505.982Z" fill="black"/>
<path d="M529.37 20.7455V37.1661H550.784V47.1652H529.37V63.9397H556.878V74.2926H516.011V10.3926H556.878V20.7455H529.37Z" fill="black"/>
<path d="M620 74.3057H608.01C605.772 74.3057 604.14 73.4539 603.14 71.7502L590.939 52.1582C590.439 51.3982 589.886 50.8346 589.281 50.4808C588.675 50.127 587.781 49.9566 586.609 49.9566H582.095V74.3057H568.828V10.3926H588.991C593.466 10.3926 597.309 10.8513 600.495 11.7817C603.68 12.7122 606.286 13.9965 608.326 15.6346C610.366 17.2858 611.853 19.2385 612.787 21.5187C613.735 23.799 614.196 26.3021 614.196 29.0279C614.196 31.1378 613.893 33.1429 613.288 35.0431C612.682 36.9302 611.8 38.6601 610.655 40.2196C609.51 41.7791 608.089 43.1551 606.404 44.3608C604.719 45.5664 602.811 46.5362 600.652 47.2701C601.508 47.7419 602.298 48.3054 603.048 48.9606C603.785 49.6159 604.443 50.4022 605.035 51.3195L620 74.3057ZM588.912 40.6521C591.058 40.6521 592.927 40.3768 594.48 39.8395C596.046 39.3022 597.323 38.5421 598.323 37.5986C599.323 36.6419 600.06 35.528 600.534 34.2306C601.008 32.9332 601.245 31.531 601.245 29.9977C601.245 26.9704 600.231 24.6246 598.218 22.9472C596.204 21.2697 593.124 20.431 588.991 20.431H582.095V40.6521H588.912Z" fill="black"/>
<path d="M64.7679 22.4358C62.9121 17.849 60.3061 13.9044 56.9236 10.5757C53.5542 7.24707 49.4873 4.65228 44.7492 2.79137C40.011 0.930456 34.7464 0 28.9685 0H0V75H28.9685C34.7464 75 40.011 74.0695 44.7492 72.2086C49.4873 70.3477 53.5542 67.766 56.9236 64.4505C60.2929 61.148 62.9121 57.1903 64.7679 52.5904C66.6236 47.9906 67.545 42.9451 67.545 37.4672C67.545 32.0287 66.6105 27.0225 64.7679 22.4358ZM30.5874 65.5513C26.8627 65.5513 9.89747 40.6911 10.6608 28.4641C12.1744 4.08876 46.6576 5.76621 51.0272 23.9691C55.3969 42.1719 33.7725 65.5513 30.5874 65.5513Z" fill="black"/>
<path d="M16.2939 22.6196C15.3331 23.4452 14.4908 26.0924 17.2547 31.151C19.9792 36.1178 23.6775 42.6178 25.836 43.26C25.836 43.26 34.8517 61.2663 36.2731 61.9346C37.6946 62.603 40.827 61.7643 39.9452 59.4709C39.037 57.112 28.0998 42.4344 28.0998 42.4344C28.0998 42.4344 28.6658 41.4384 27.0732 38.9878C24.5725 35.1349 19.3869 25.0309 17.926 23.0652C17.1231 22.0168 16.5177 22.4361 16.2939 22.6196Z" fill="black"/>
<path d="M36.1548 36.1441C35.5757 34.0473 34.9702 31.8981 36.1285 30.2075C37.2867 28.517 41.9458 21.8203 41.9458 21.8203L43.0777 22.4887L38.0632 30.8235L39.0766 31.4787L44.4334 23.3536L45.3678 23.8647L40.6429 32.3436L41.8274 33.0382L46.7498 24.6903L47.6974 25.2538C47.6974 25.2538 44.2359 33.0251 43.1041 34.4142C41.9722 35.8034 40.7613 36.5372 37.7736 37.1532C37.7736 37.1532 31.3903 50.1402 29.8504 52.9316C27.9946 56.2996 26.0994 62.459 24.5463 62.7473C22.9932 63.0356 19.9793 63.3763 19.9135 59.8511C21.6508 56.2341 28.3763 47.8993 30.1005 44.623C32.0615 40.8619 36.1548 36.1441 36.1548 36.1441Z" fill="black"/>
</svg>
