<svg width="386" height="194" viewBox="0 0 386 194" fill="none" xmlns="http://www.w3.org/2000/svg">
<path d="M51.2348 28.9511C50.0037 29.9974 48.9244 33.3522 52.466 39.7629C55.957 46.0573 60.696 54.2949 63.4618 55.1087C63.4618 55.1087 75.0141 77.928 76.8355 78.775C78.6569 79.622 82.6707 78.5591 81.5408 75.6527C80.3771 72.6633 66.3625 54.0624 66.3625 54.0624C66.3625 54.0624 67.0877 52.8002 65.0471 49.6945C61.8428 44.8117 55.1981 32.007 53.3261 29.5158C52.2973 28.1871 51.5215 28.7186 51.2348 28.9511Z" fill="black"/>
<path d="M76.667 46.0905C75.925 43.4332 75.1492 40.7095 76.6333 38.5671C78.1174 36.4247 84.0875 27.938 84.0875 27.938L85.5379 28.785L79.1124 39.3477L80.411 40.1781L87.275 29.8811L88.4723 30.5288L82.4179 41.2742L83.9357 42.1544L90.2431 31.5751L91.4574 32.2893C91.4574 32.2893 87.022 42.1378 85.5716 43.8982C84.1212 45.6587 82.5697 46.5887 78.7414 47.3693C78.7414 47.3693 70.562 63.8278 68.5888 67.3653C66.2109 71.6335 63.7824 79.4393 61.7923 79.8047C59.8023 80.17 55.9403 80.6018 55.856 76.1343C58.0821 71.5505 66.7 60.9878 68.9093 56.8358C71.439 52.0694 76.667 46.0905 76.667 46.0905Z" fill="black"/>
<path d="M154.734 95.333H134.648V0.285645H154.734V95.333Z" fill="black"/>
<path d="M260.712 0.285645V95.333H250.408C248.856 95.333 247.541 95.0839 246.478 94.5857C245.416 94.0874 244.37 93.2238 243.358 91.9948L195.26 31.7245C195.395 33.2525 195.496 34.7638 195.564 36.2419C195.631 37.72 195.665 39.0985 195.665 40.3773V95.333H178.024V0.285645H188.531C189.374 0.285645 190.1 0.31886 190.69 0.385292C191.28 0.451724 191.837 0.601196 192.326 0.850315C192.815 1.09943 193.287 1.41499 193.725 1.79697C194.164 2.17895 194.653 2.71041 195.193 3.37473L243.611 63.9108C243.443 62.25 243.308 60.639 243.207 59.0945C243.122 57.5499 243.072 56.0718 243.072 54.6767V0.285645H260.712Z" fill="black"/>
<path d="M304.071 15.6812V40.1115H336.266V54.9757H304.071V79.9374H345.44V95.333H283.985V0.285645H345.457V15.6812H304.071Z" fill="black"/>
<path d="M113.331 28.7185C110.953 22.9057 107.614 17.9067 103.28 13.6883C98.9622 9.46985 93.751 6.18147 87.6797 3.82314C81.6084 1.46481 74.8794 0.285645 67.4758 0.285645H30.3565V95.333H67.4758C74.8794 95.333 81.6253 94.1539 87.6966 91.7955C93.7679 89.4372 98.9791 86.1654 103.296 81.9636C107.614 77.7784 110.97 72.7628 113.348 66.9334C115.726 61.104 116.906 54.7099 116.906 47.7678C116.889 40.8755 115.709 34.5313 113.331 28.7185ZM69.5333 83.3587C64.7606 83.3587 43.0219 51.8534 44.0001 36.3581C45.9564 5.46733 90.142 7.59315 95.7411 30.6616C101.34 53.7301 73.6145 83.3587 69.5333 83.3587Z" fill="black"/>
<path d="M75.7564 125.576V193.237H63.209V151.684C63.209 150.82 63.2259 149.874 63.2765 148.894C63.3271 147.914 63.4114 146.884 63.5294 145.855L43.882 182.558C42.8027 184.584 41.1499 185.597 38.9069 185.597H36.9338C35.8207 185.597 34.8425 185.348 33.9993 184.833C33.1561 184.319 32.4646 183.571 31.9587 182.575L12.2101 145.722C12.3113 146.818 12.3787 147.864 12.4462 148.877C12.5136 149.89 12.5474 150.82 12.5474 151.701V193.254H0V125.576H10.7934C11.4006 125.576 11.9234 125.593 12.3956 125.626C12.8678 125.659 13.2894 125.742 13.6436 125.875C14.0146 126.008 14.335 126.24 14.6386 126.523C14.9422 126.822 15.2289 127.237 15.5156 127.752L34.7413 163.841C35.3485 164.937 35.905 166.05 36.4278 167.196C36.9506 168.342 37.4397 169.521 37.9119 170.733C38.3841 169.488 38.8901 168.275 39.396 167.096C39.9188 165.917 40.4754 164.788 41.0825 163.691L60.1734 127.735C60.4601 127.204 60.7636 126.789 61.0672 126.506C61.3876 126.207 61.7249 125.991 62.0791 125.859C62.4332 125.726 62.8549 125.626 63.3102 125.609C63.7656 125.576 64.3052 125.56 64.9461 125.56H75.7564V125.576Z" fill="black"/>
<path d="M152.423 193.237H141.394C140.163 193.237 139.151 192.955 138.392 192.373C137.616 191.792 137.043 191.061 136.655 190.165L132.017 177.244H104.646L100.008 190.165C99.6875 190.945 99.1478 191.643 98.3552 192.29C97.5625 192.921 96.5675 193.254 95.3701 193.254H84.2394L111.088 125.593H125.625L152.423 193.237ZM128.56 167.544L121.123 146.834C120.684 145.738 120.212 144.476 119.723 143.015C119.234 141.553 118.761 139.975 118.323 138.265C117.885 140.008 117.412 141.619 116.923 143.098C116.434 144.576 115.962 145.854 115.523 146.951L108.137 167.561H128.56V167.544Z" fill="black"/>
<path d="M198.16 138.547C197.722 139.261 197.267 139.776 196.811 140.108C196.356 140.44 195.766 140.606 195.041 140.606C194.349 140.606 193.59 140.374 192.798 139.875C191.988 139.394 191.06 138.879 189.981 138.314C188.902 137.75 187.671 137.235 186.288 136.753C184.905 136.271 183.269 136.022 181.414 136.022C178.125 136.022 175.663 136.753 174.027 138.198C172.391 139.643 171.565 141.536 171.565 143.861C171.565 145.356 172.02 146.585 172.914 147.565C173.808 148.545 175.005 149.392 176.472 150.106C177.94 150.82 179.609 151.451 181.464 152.016C183.32 152.581 185.242 153.195 187.198 153.859C189.155 154.524 191.06 155.321 192.932 156.218C194.788 157.114 196.457 158.26 197.924 159.622C199.392 160.984 200.572 162.662 201.483 164.638C202.377 166.614 202.832 169.006 202.832 171.846C202.832 174.918 202.292 177.808 201.196 180.499C200.117 183.189 198.532 185.531 196.491 187.54C194.433 189.55 191.904 191.128 188.885 192.274C185.866 193.42 182.459 194.001 178.631 194.001C176.456 194.001 174.28 193.785 172.121 193.353C169.963 192.921 167.871 192.307 165.865 191.543C163.858 190.762 161.969 189.832 160.198 188.753C158.427 187.657 156.876 186.444 155.56 185.116L159.726 178.489C160.08 177.991 160.535 177.576 161.092 177.26C161.665 176.928 162.255 176.762 162.896 176.762C163.74 176.762 164.65 177.077 165.595 177.692C166.539 178.306 167.635 179.004 168.866 179.751C170.098 180.499 171.531 181.179 173.15 181.811C174.769 182.425 176.725 182.741 179.002 182.741C182.325 182.741 184.888 181.993 186.692 180.499C188.514 179.004 189.425 176.778 189.425 173.822C189.425 172.111 188.969 170.733 188.075 169.67C187.182 168.607 186.001 167.727 184.551 167.013C183.1 166.299 181.448 165.684 179.576 165.169C177.704 164.655 175.798 164.09 173.842 163.475C171.885 162.861 169.98 162.113 168.108 161.233C166.252 160.37 164.583 159.207 163.132 157.779C161.682 156.351 160.502 154.573 159.608 152.464C158.714 150.355 158.259 147.731 158.259 144.575C158.259 142.051 158.764 139.61 159.776 137.251C160.788 134.893 162.272 132.784 164.229 130.957C166.185 129.13 168.597 127.652 171.447 126.523C174.297 125.41 177.586 124.845 181.279 124.845C185.411 124.845 189.239 125.476 192.764 126.739C196.289 128.001 199.257 129.745 201.685 131.987L198.16 138.547Z" fill="black"/>
<path d="M263.933 136.87H243.864V193.254H229.613V136.87H209.544V125.593H263.95V136.87H263.933Z" fill="black"/>
<path d="M288.977 136.537V153.926H311.896V164.505H288.977V182.276H318.423V193.237H274.676V125.576H318.423V136.537H288.977Z" fill="black"/>
<path d="M386 193.237H373.166C370.771 193.237 369.034 192.34 367.955 190.53L354.885 169.787C354.345 168.973 353.755 168.392 353.114 168.01C352.473 167.644 351.512 167.445 350.247 167.445H345.423V193.237H331.223V125.576H352.81C357.6 125.576 361.715 126.074 365.121 127.038C368.528 128.018 371.328 129.379 373.503 131.123C375.679 132.867 377.281 134.943 378.293 137.351C379.305 139.759 379.811 142.417 379.811 145.306C379.811 147.549 379.49 149.674 378.832 151.667C378.192 153.677 377.247 155.504 376.016 157.148C374.785 158.792 373.267 160.254 371.463 161.532C369.658 162.811 367.617 163.841 365.307 164.605C366.218 165.103 367.078 165.701 367.87 166.399C368.663 167.096 369.371 167.926 369.995 168.89L386 193.237ZM352.709 157.613C355.003 157.613 357.01 157.331 358.679 156.749C360.349 156.168 361.732 155.387 362.794 154.374C363.873 153.361 364.649 152.182 365.155 150.804C365.661 149.442 365.914 147.947 365.914 146.32C365.914 143.114 364.835 140.64 362.676 138.863C360.517 137.085 357.229 136.205 352.81 136.205H345.423V157.613H352.709Z" fill="black"/>
</svg>
