<svg width="386" height="195" viewBox="0 0 386 195" fill="none" xmlns="http://www.w3.org/2000/svg">
<path d="M51.2348 29.5522C50.0037 30.5985 48.9244 33.9533 52.466 40.364C55.957 46.6584 60.696 54.8959 63.4618 55.7097C63.4618 55.7097 75.0141 78.5291 76.8355 79.3761C78.6569 80.2231 82.6707 79.1602 81.5408 76.2538C80.3771 73.2644 66.3625 54.6634 66.3625 54.6634C66.3625 54.6634 67.0877 53.4012 65.0471 50.2955C61.8428 45.4128 55.1981 32.6081 53.3261 30.1169C52.2973 28.7882 51.5215 29.3197 51.2348 29.5522Z" fill="white"/>
<path d="M76.667 46.6911C75.925 44.0338 75.1492 41.3101 76.6333 39.1677C78.1174 37.0252 84.0875 28.5386 84.0875 28.5386L85.5379 29.3856L79.1124 39.9482L80.411 40.7786L87.275 30.4817L88.4723 31.1294L82.4179 41.8748L83.9357 42.755L90.2431 32.1757L91.4574 32.8899C91.4574 32.8899 87.022 42.7384 85.5716 44.4988C84.1212 46.2593 82.5697 47.1893 78.7414 47.9699C78.7414 47.9699 70.562 64.4284 68.5888 67.9659C66.2109 72.2341 63.7824 80.0399 61.7923 80.4053C59.8023 80.7706 55.9403 81.2024 55.856 76.7349C58.0821 72.1511 66.7 61.5884 68.9093 57.4364C71.439 52.6699 76.667 46.6911 76.667 46.6911Z" fill="white"/>
<path d="M154.734 95.9341H134.648V0.886719H154.734V95.9341Z" fill="white"/>
<path d="M260.712 0.886719V95.9341H250.408C248.856 95.9341 247.541 95.685 246.478 95.1868C245.416 94.6885 244.37 93.8249 243.358 92.5959L195.26 32.3256C195.395 33.8535 195.496 35.3649 195.564 36.843C195.631 38.3211 195.665 39.6995 195.665 40.9783V95.9341H178.024V0.886719H188.531C189.374 0.886719 190.1 0.919935 190.69 0.986367C191.28 1.0528 191.837 1.20227 192.326 1.45139C192.815 1.70051 193.287 2.01606 193.725 2.39804C194.164 2.78003 194.653 3.31148 195.193 3.9758L243.611 64.5118C243.443 62.851 243.308 61.2401 243.207 59.6955C243.122 58.151 243.072 56.6729 243.072 55.2778V0.886719H260.712Z" fill="white"/>
<path d="M304.071 16.2823V40.7126H336.266V55.5768H304.071V80.5385H345.44V95.9341H283.985V0.886719H345.457V16.2823H304.071Z" fill="white"/>
<path d="M113.331 29.3196C110.953 23.5068 107.614 18.5078 103.28 14.2893C98.9622 10.0709 93.751 6.78255 87.6797 4.42422C81.6084 2.06588 74.8794 0.886719 67.4758 0.886719H30.3565V95.9341H67.4758C74.8794 95.9341 81.6253 94.7549 87.6966 92.3966C93.7679 90.0383 98.9791 86.7665 103.296 82.5647C107.614 78.3795 110.97 73.3639 113.348 67.5345C115.726 61.7051 116.906 55.311 116.906 48.3689C116.889 41.4766 115.709 35.1323 113.331 29.3196ZM69.5333 83.9598C64.7606 83.9598 43.0219 52.4545 44.0001 36.9592C45.9564 6.0684 90.142 8.19422 95.7411 31.2627C101.34 54.3312 73.6145 83.9598 69.5333 83.9598Z" fill="white"/>
<path d="M75.7564 126.177V193.838H63.209V152.284C63.209 151.421 63.2259 150.474 63.2765 149.494C63.3271 148.514 63.4114 147.485 63.5294 146.455L43.882 183.159C42.8027 185.185 41.1499 186.198 38.9069 186.198H36.9338C35.8207 186.198 34.8425 185.949 33.9993 185.434C33.1561 184.919 32.4646 184.172 31.9587 183.175L12.2101 146.322C12.3113 147.418 12.3787 148.465 12.4462 149.478C12.5136 150.491 12.5474 151.421 12.5474 152.301V193.854H0V126.177H10.7934C11.4006 126.177 11.9234 126.193 12.3956 126.227C12.8678 126.26 13.2894 126.343 13.6436 126.476C14.0146 126.609 14.335 126.841 14.6386 127.123C14.9422 127.422 15.2289 127.838 15.5156 128.352L34.7413 164.442C35.3485 165.538 35.905 166.65 36.4278 167.796C36.9506 168.942 37.4397 170.121 37.9119 171.334C38.3841 170.088 38.8901 168.876 39.396 167.697C39.9188 166.518 40.4754 165.388 41.0825 164.292L60.1734 128.336C60.4601 127.804 60.7636 127.389 61.0672 127.107C61.3876 126.808 61.7249 126.592 62.0791 126.459C62.4332 126.326 62.8549 126.227 63.3102 126.21C63.7656 126.177 64.3052 126.16 64.9461 126.16H75.7564V126.177Z" fill="white"/>
<path d="M152.423 193.838H141.394C140.163 193.838 139.151 193.555 138.392 192.974C137.616 192.393 137.043 191.662 136.655 190.765L132.017 177.844H104.646L100.008 190.765C99.6875 191.546 99.1478 192.243 98.3552 192.891C97.5625 193.522 96.5675 193.854 95.3701 193.854H84.2394L111.088 126.193H125.625L152.423 193.838ZM128.56 168.145L121.123 147.435C120.684 146.339 120.212 145.077 119.723 143.615C119.234 142.154 118.761 140.576 118.323 138.865C117.885 140.609 117.412 142.22 116.923 143.698C116.434 145.176 115.962 146.455 115.523 147.551L108.137 168.162H128.56V168.145Z" fill="white"/>
<path d="M198.16 139.148C197.722 139.862 197.267 140.377 196.811 140.709C196.356 141.041 195.766 141.207 195.041 141.207C194.349 141.207 193.59 140.975 192.798 140.477C191.988 139.995 191.06 139.48 189.981 138.915C188.902 138.351 187.671 137.836 186.288 137.354C184.905 136.873 183.269 136.623 181.414 136.623C178.125 136.623 175.663 137.354 174.027 138.799C172.391 140.244 171.565 142.137 171.565 144.462C171.565 145.957 172.02 147.186 172.914 148.166C173.808 149.146 175.005 149.993 176.472 150.707C177.94 151.421 179.609 152.052 181.464 152.617C183.32 153.182 185.242 153.796 187.198 154.46C189.155 155.125 191.06 155.922 192.932 156.819C194.788 157.716 196.457 158.862 197.924 160.223C199.392 161.585 200.572 163.263 201.483 165.239C202.377 167.215 202.832 169.607 202.832 172.447C202.832 175.519 202.292 178.409 201.196 181.1C200.117 183.79 198.532 186.132 196.491 188.141C194.433 190.151 191.904 191.729 188.885 192.875C185.866 194.021 182.459 194.602 178.631 194.602C176.456 194.602 174.28 194.386 172.121 193.954C169.963 193.522 167.871 192.908 165.865 192.144C163.858 191.363 161.969 190.433 160.198 189.354C158.427 188.258 156.876 187.045 155.56 185.717L159.726 179.09C160.08 178.592 160.535 178.177 161.092 177.861C161.665 177.529 162.255 177.363 162.896 177.363C163.74 177.363 164.65 177.678 165.595 178.293C166.539 178.907 167.635 179.605 168.866 180.352C170.098 181.1 171.531 181.781 173.15 182.412C174.769 183.026 176.725 183.342 179.002 183.342C182.325 183.342 184.888 182.594 186.692 181.1C188.514 179.605 189.425 177.379 189.425 174.423C189.425 172.713 188.969 171.334 188.075 170.271C187.182 169.208 186.001 168.328 184.551 167.614C183.1 166.9 181.448 166.285 179.576 165.77C177.704 165.256 175.798 164.691 173.842 164.076C171.885 163.462 169.98 162.715 168.108 161.834C166.252 160.971 164.583 159.808 163.132 158.38C161.682 156.952 160.502 155.175 159.608 153.065C158.714 150.956 158.259 148.332 158.259 145.177C158.259 142.652 158.764 140.211 159.776 137.852C160.788 135.494 162.272 133.385 164.229 131.558C166.185 129.731 168.597 128.253 171.447 127.124C174.297 126.011 177.586 125.446 181.279 125.446C185.411 125.446 189.239 126.077 192.764 127.34C196.289 128.602 199.257 130.346 201.685 132.588L198.16 139.148Z" fill="white"/>
<path d="M263.933 137.47H243.864V193.854H229.613V137.47H209.544V126.193H263.95V137.47H263.933Z" fill="white"/>
<path d="M288.977 137.139V154.527H311.896V165.106H288.977V182.877H318.423V193.838H274.676V126.177H318.423V137.139H288.977Z" fill="white"/>
<path d="M386 193.838H373.166C370.771 193.838 369.034 192.941 367.955 191.131L354.885 170.388C354.345 169.574 353.755 168.993 353.114 168.611C352.473 168.245 351.512 168.046 350.247 168.046H345.423V193.838H331.223V126.177H352.81C357.6 126.177 361.715 126.675 365.121 127.639C368.528 128.619 371.328 129.98 373.503 131.724C375.679 133.468 377.281 135.544 378.293 137.952C379.305 140.36 379.811 143.018 379.811 145.908C379.811 148.15 379.49 150.275 378.832 152.268C378.192 154.278 377.247 156.105 376.016 157.749C374.785 159.393 373.267 160.855 371.463 162.133C369.658 163.412 367.617 164.442 365.307 165.206C366.218 165.704 367.078 166.302 367.87 167C368.663 167.697 369.371 168.528 369.995 169.491L386 193.838ZM352.709 158.214C355.003 158.214 357.01 157.932 358.679 157.35C360.349 156.769 361.732 155.989 362.794 154.975C363.873 153.962 364.649 152.783 365.155 151.405C365.661 150.043 365.914 148.548 365.914 146.921C365.914 143.715 364.835 141.241 362.676 139.464C360.517 137.687 357.229 136.806 352.81 136.806H345.423V158.214H352.709Z" fill="white"/>
</svg>
